<svg width="40" height="40" viewBox="0 0 40 40" fill="none" xmlns="http://www.w3.org/2000/svg">
<g clip-path="url(#clip0_153_3)">
<path d="M38.828 17.1711L22.828 1.17114C22.0779 0.421261 21.0607 0 20 0C18.9393 0 17.9221 0.421261 17.172 1.17114L1.17202 17.1711C0.799074 17.5418 0.503433 17.9828 0.302247 18.4686C0.101061 18.9544 -0.00166735 19.4753 2.04649e-05 20.0011V39.2011C2.04649e-05 39.8376 0.252877 40.4481 0.702964 40.8982C1.15305 41.3482 1.7635 41.6011 2.40002 41.6011H37.6C38.2365 41.6011 38.8469 41.3482 39.297 40.8982C39.7471 40.4481 40 39.8376 40 39.2011V20.0011C40.0017 19.4753 39.8989 18.9544 39.6978 18.4686C39.4966 17.9828 39.2009 17.5418 38.828 17.1711ZM35.2 36.8011H4.80002V20.3311L20 5.13114L35.2 20.3311V36.8011Z" fill="#41B06D"/>
<path d="M19.9999 13.3611C17.8639 13.3611 15.7758 13.9945 13.9998 15.1813C12.2237 16.368 10.8395 18.0547 10.0221 20.0281C9.20463 22.0016 8.99075 24.1731 9.40747 26.2681C9.82419 28.3631 10.8528 30.2875 12.3632 31.7979C13.8736 33.3083 15.798 34.3369 17.893 34.7536C19.988 35.1703 22.1595 34.9564 24.1329 34.139C26.1064 33.3216 27.7931 31.9373 28.9798 30.1613C30.1665 28.3852 30.7999 26.2972 30.7999 24.1611C30.7968 21.2978 29.6579 18.5526 27.6332 16.5279C25.6085 14.5032 22.8633 13.3643 19.9999 13.3611ZM19.9999 32.5611C18.3386 32.5611 16.7145 32.0685 15.3332 31.1455C13.9518 30.2225 12.8751 28.9106 12.2394 27.3757C11.6036 25.8408 11.4372 24.1518 11.7614 22.5224C12.0855 20.8929 12.8855 19.3962 14.0603 18.2214C15.235 17.0467 16.7317 16.2467 18.3612 15.9225C19.9906 15.5984 21.6796 15.7648 23.2145 16.4005C24.7494 17.0363 26.0613 18.113 26.9843 19.4943C27.9073 20.8757 28.3999 22.4998 28.3999 24.1611C28.3976 26.3882 27.5118 28.5234 25.937 30.0982C24.3622 31.673 22.227 32.5587 19.9999 32.5611ZM24.3999 26.1611C24.3999 27.0098 24.0628 27.8237 23.4627 28.4239C22.8626 29.024 22.0486 29.3611 21.1999 29.3611V29.7611C21.1999 30.0794 21.0735 30.3846 20.8485 30.6096C20.6234 30.8347 20.3182 30.9611 19.9999 30.9611C19.6817 30.9611 19.3765 30.8347 19.1514 30.6096C18.9264 30.3846 18.7999 30.0794 18.7999 29.7611V29.3611H17.5999C17.2817 29.3611 16.9765 29.2347 16.7514 29.0096C16.5264 28.7846 16.3999 28.4794 16.3999 28.1611C16.3999 27.8429 16.5264 27.5376 16.7514 27.3126C16.9765 27.0876 17.2817 26.9611 17.5999 26.9611H21.1999C21.4121 26.9611 21.6156 26.8768 21.7656 26.7268C21.9157 26.5768 21.9999 26.3733 21.9999 26.1611C21.9999 25.949 21.9157 25.7455 21.7656 25.5954C21.6156 25.4454 21.4121 25.3611 21.1999 25.3611H18.7999C17.9513 25.3611 17.1373 25.024 16.5372 24.4239C15.9371 23.8238 15.5999 23.0098 15.5999 22.1611C15.5999 21.3124 15.9371 20.4985 16.5372 19.8984C17.1373 19.2983 17.9513 18.9611 18.7999 18.9611V18.5611C18.7999 18.2429 18.9264 17.9376 19.1514 17.7126C19.3765 17.4876 19.6817 17.3611 19.9999 17.3611C20.3182 17.3611 20.6234 17.4876 20.8485 17.7126C21.0735 17.9376 21.1999 18.2429 21.1999 18.5611V18.9611H22.3999C22.7182 18.9611 23.0234 19.0876 23.2485 19.3126C23.4735 19.5376 23.5999 19.8429 23.5999 20.1611C23.5999 20.4794 23.4735 20.7846 23.2485 21.0097C23.0234 21.2347 22.7182 21.3611 22.3999 21.3611H18.7999C18.5878 21.3611 18.3843 21.4454 18.2343 21.5954C18.0842 21.7455 17.9999 21.949 17.9999 22.1611C17.9999 22.3733 18.0842 22.5768 18.2343 22.7268C18.3843 22.8768 18.5878 22.9611 18.7999 22.9611H21.1999C22.0486 22.9611 22.8626 23.2983 23.4627 23.8984C24.0628 24.4985 24.3999 25.3124 24.3999 26.1611Z" fill="#41B06D"/>
</g>
<defs>
<clipPath id="clip0_153_3">
<rect width="40" height="40" fill="white"/>
</clipPath>
</defs>
</svg>
